<?xml version="1.0" encoding="UTF-8"?>
<svg width="700pt" height="700pt" version="1.1" viewBox="0 0 700 700" xmlns="http://www.w3.org/2000/svg" xmlns:xlink="http://www.w3.org/1999/xlink">
 <g>
  <path d="m144.5 235.07c-9.1367-7.6992-17.844-15.898-26.043-24.578-3.9492-4.1836-7.7578-8.4805-11.457-12.875l-1.207-1.4531c-0.89062-1.082-1.6719-2.0039-2.4922-3.1758-2.1484-3.0859-3.7031-6.5781-4.5508-10.246-0.67969-2.9414-0.90625-5.9766-0.66406-8.9766 0.54687-6.7773 3.4766-13.266 8.207-18.152 2.0938-2.1641 4.5234-4 7.168-5.4375 2.6523-1.4297 5.5195-2.4453 8.4805-3.0117 1.9766-0.375 2.4844-0.35547 4.4883-0.5 0.75 0 1.5 0.007812 2.2539 0.007812 1.9961 0.16016 2.5117 0.13672 4.4766 0.52734 5.1797 1.0273 10.051 3.4492 13.977 6.9766 2.2539 2.0195 4.0742 4.4453 6.0195 6.75 0.98047 1.1484 1.9688 2.2852 2.9609 3.418 3.1016 3.4844 6.2852 6.8984 9.5703 10.203 13.527 13.602 28.594 25.668 44.668 36.109 34.312 22.27 73.617 37.285 114.37 41.727 6.4375 0.69922 12.906 1.1367 19.375 1.3047 8.4648 0.21484 16.945-0.035156 25.383-0.75 43.973-3.6992 86.492-19.812 123.1-44.234 16.711-11.148 32.301-24.07 46.098-38.68 3.1328-3.3203 6.1602-6.7383 9.1055-10.23l0.94531-1.1445 1-1.2148 1.4961-1.6875c0.53906-0.52344 1.0625-1.0664 1.6211-1.5703 1.1211-1.0078 2.3203-1.9297 3.582-2.7461 4.418-2.8789 9.5977-4.5391 14.875-4.7578 3.7539-0.15625 7.543 0.41016 11.094 1.6797 2.8359 1.0078 5.5195 2.4531 7.9141 4.2734 3.6094 2.7227 6.5625 6.2812 8.582 10.328 2.0195 4.043 3.0859 8.5469 3.1016 13.07 0.007812 3.0117-0.44922 6.0156-1.3477 8.8906-0.89844 2.875-2.2422 5.6055-3.9727 8.0742-0.76562 1.1055-1.6289 2.1367-2.4844 3.1758-1.1992 1.457-2.4219 2.9023-3.6523 4.3398-6.7773 7.875-13.992 15.383-21.551 22.516-4.3828 4.1406-8.8906 8.1523-13.504 12.043l24.926 42.762c8.457 14.512 4.4727 33.086-9.2031 42.848-0.035156-0.042969-0.042969-0.042969-0.042969-0.042969-7.6992 5.4961-17.352 7.4922-26.59 5.5-9.2461-1.9805-17.227-7.7695-21.984-15.934-7.0586-12.059-15.094-25.828-21.902-37.5-8.125 4.4805-16.445 8.6328-24.918 12.43l17.219 57.473c5.1289 17.121-4.3477 35.215-21.352 40.746-0.019531-0.058594-0.027344-0.050781-0.035157-0.050781-8.5312 2.7695-17.816 1.9883-25.766-2.1719-7.9414-4.1641-13.871-11.355-16.441-19.945-5.7461-19.066-12.703-42.242-16.605-55.27-7.1602 1.5469-14.367 2.8438-21.617 3.8672-2.6875 0.38672-5.3789 0.73047-8.0742 1.0312v69.543c0 18.211-14.758 32.977-32.969 32.988h-0.33984-0.007812c-18.227 0-32.988-14.77-32.988-32.988v-69.547c-2.668-0.30469-5.3281-0.64844-7.9805-1.0273-7.2695-1.0312-14.5-2.3281-21.676-3.8789l-16.605 55.445c-2.5703 8.5898-8.4844 15.773-16.426 19.941-7.9375 4.1641-17.211 4.9531-25.742 2.1875l0.015625-0.058594c-17.035-5.5234-26.531-23.633-21.398-40.777 5.9258-19.922 13.359-44.785 17.176-57.539-8.4492-3.7852-16.746-7.9258-24.852-12.398l-21.992 37.734c-4.75 8.1641-12.723 13.949-21.961 15.938-9.2305 1.9883-18.883 0-26.574-5.4805 0.03125-0.054687 0.03125-0.054687 0.023437-0.054687-13.703-9.7617-17.703-28.355-9.2305-42.891 7.7773-13.41 17.348-29.852 24.93-42.871z" fill-rule="evenodd" fill="#384B42"/>
 </g>
</svg>
