<?xml version="1.0" encoding="UTF-8"?>
<svg width="700pt" height="700pt" version="1.1" viewBox="0 0 700 700" xmlns="http://www.w3.org/2000/svg" xmlns:xlink="http://www.w3.org/1999/xlink">
 <g>
  <path d="m316.91 222.08v-69.531c0-18.223 14.758-32.984 32.969-33 0.10938 0.007813 0.22266 0.007813 0.33984 0.007813h0.007812c18.219 0 32.988 14.766 32.988 32.984v69.547c7.3906 0.84766 14.75 1.9766 22.059 3.3594 2.5352 0.48828 5.0703 1.0039 7.5898 1.5469l16.605-55.445c2.5703-8.582 8.4961-15.773 16.43-19.938 7.9336-4.168 17.215-4.957 25.742-2.1953-0.015625 0.058593-0.007813 0.066406-0.007813 0.066406 17.023 5.5195 26.527 23.629 21.395 40.777-5.9258 19.914-13.359 44.789-17.176 57.531 7.3164 3.2812 14.516 6.8242 21.574 10.617 1.0977 0.58984 2.1875 1.1875 3.2695 1.7852l21.992-37.738c4.7578-8.1602 12.73-13.945 21.961-15.934 9.2383-1.9883 18.883 0 26.582 5.4805-0.035156 0.050782-0.027343 0.050782-0.027343 0.058594 13.703 9.7539 17.711 28.352 9.2383 42.887-7.7891 13.414-17.359 29.859-24.941 42.879 12.078 10.172 23.438 21.223 33.816 33.129 1.6602 1.9023 3.293 3.8242 4.9023 5.7695 1.332 1.6289 2.6367 3.2578 3.7031 5.0742 1.918 3.2422 3.1992 6.8516 3.7578 10.574 0.67969 4.4727 0.30859 9.082-1.0664 13.387-1.3789 4.3008-3.7578 8.2734-6.8984 11.523-2.0977 2.1562-4.5234 4-7.1758 5.4297-2.6523 1.4258-5.5156 2.4531-8.4766 3.0117-2.957 0.56641-6 0.67188-8.9883 0.31641-6-0.71484-11.707-3.293-16.211-7.3242-2.2461-2.0156-4.0742-4.4492-6.0117-6.7539-0.98047-1.1406-1.9648-2.2852-2.9609-3.4102-3.1016-3.4922-6.2852-6.9062-9.5781-10.211-13.938-14.023-29.512-26.406-46.156-37.066-13.645-8.7305-28.055-16.328-43.023-22.559 4.9258 12.016 7.6445 25.18 7.6445 38.973 0 56.758-46.008 102.77-102.77 102.77-56.758 0-102.76-46.008-102.76-102.77 0-13.801 2.7188-26.957 7.6484-38.973-17.156 7.1445-33.578 16.066-48.949 26.457-17.004 11.5-32.836 24.84-46.738 39.957-3.0781 3.3555-6.0469 6.8008-8.9375 10.324l-1.4922 1.6875c-0.53906 0.52344-1.0625 1.0664-1.6211 1.5742-1.1211 1.0039-2.3203 1.9258-3.582 2.7422-4.4219 2.8867-9.6016 4.5469-14.875 4.7578-3.0039 0.125-6.0352-0.21094-8.9453-1-4.3594-1.1797-8.4258-3.3828-11.816-6.375-3.3789-2.9961-6.0547-6.7773-7.7578-10.961-1.1328-2.793-1.8398-5.7539-2.0781-8.7539-0.24219-3.0039-0.019531-6.0391 0.65625-8.9727 0.67969-2.9297 1.8047-5.7617 3.3398-8.3555 1.3906-2.3555 3.168-4.4336 4.918-6.5273 1.6211-1.9375 3.2734-3.8594 4.9531-5.7539 10.035-11.359 20.961-21.926 32.543-31.688l-24.918-42.758c-8.4648-14.523-4.4805-33.086 9.2031-42.848 0.035156 0.042969 0.035156 0.035157 0.042969 0.035157 7.6914-5.4883 17.344-7.4844 26.59-5.5039 9.2383 1.9883 17.215 7.7734 21.977 15.945 7.0586 12.059 15.094 25.828 21.91 37.5 0.44922-0.25391 0.89844-0.49609 1.3477-0.74609 7.6914-4.1992 15.559-8.0977 23.562-11.684l-17.211-57.473c-5.1289-17.129 4.3438-35.219 21.348-40.75 0.023438 0.050781 0.03125 0.050781 0.039063 0.042969 8.5234-2.7695 17.812-1.9883 25.758 2.1758 7.9492 4.1602 13.871 11.352 16.449 19.941 5.7461 19.066 12.703 42.246 16.605 55.277 2.5039-0.54297 5.0195-1.0508 7.5312-1.5391 7.3438-1.3906 14.734-2.5195 22.16-3.3672z" fill-rule="evenodd" fill="#384B42"/>
 </g>
</svg>
